<svg width="26" height="24" viewBox="0 0 26 24" fill="none" xmlns="http://www.w3.org/2000/svg">
<g clip-path="url(#clip0)">
<path d="M5.69969 24V7.80725H0.317544V24H5.69969ZM3.00931 5.59507C4.88616 5.59507 6.05441 4.35166 6.05441 2.7978C6.01944 1.2089 4.88623 0 3.04493 0C1.20391 0 0 1.20893 0 2.7978C0 4.35173 1.16796 5.59507 2.97418 5.59507H3.00914H3.00931ZM8.67869 24H14.0608V14.9572C14.0608 14.4732 14.0958 13.9898 14.2379 13.6438C14.627 12.6769 15.5126 11.6754 16.9994 11.6754C18.9469 11.6754 19.7261 13.1603 19.7261 15.3371V23.9999H25.1079V14.7151C25.1079 9.74134 22.4526 7.42709 18.9115 7.42709C16.008 7.42709 14.7332 9.05002 14.025 10.1554H14.061V7.80691H8.67881C8.74944 9.32635 8.67881 23.9997 8.67881 23.9997L8.67869 24Z" fill="white"/>
</g>
<defs>
<clipPath id="clip0">
<rect width="25.1078" height="24" fill="white"/>
</clipPath>
</defs>
</svg>
