<svg width="195" height="47" viewBox="0 0 195 47" fill="none" xmlns="http://www.w3.org/2000/svg">
<path d="M18.8191 16.5059L16.4305 30.5231H20.2507L22.6412 16.5059H18.8191Z" fill="#917C51"/>
<path d="M13.2273 16.522L9.48569 26.0814L9.08677 24.638C8.34887 22.8988 6.25404 20.4012 3.79468 18.8271L7.21597 30.5167L11.2582 30.5098L17.2745 16.519L13.2273 16.522Z" fill="#917C51"/>
<path d="M7.63649 17.525C7.41443 16.6712 6.77085 16.4167 5.97203 16.3862H0.0491282L0 16.6653C4.60921 17.7834 7.65909 20.4776 8.92463 23.7171L7.63649 17.525Z" fill="#917C51"/>
<path d="M30.3838 19.1932C31.6337 19.1735 32.5396 19.4467 33.2431 19.7297L33.588 19.8918L34.1048 16.8537C33.3482 16.5697 32.1623 16.2651 30.6825 16.2651C26.9075 16.2651 24.2467 18.1664 24.2261 20.891C24.2015 22.9043 26.1215 24.0284 27.5717 24.6995C29.0603 25.3873 29.5595 25.8245 29.5526 26.4386C29.5408 27.377 28.3657 27.8073 27.2681 27.8073C25.7383 27.8073 24.9257 27.5961 23.671 27.0733L23.1787 26.8493L22.6412 29.9867C23.5354 30.3787 25.1851 30.7157 26.8977 30.7334C30.9134 30.7334 33.5231 28.8547 33.5507 25.9434C33.5674 24.3507 32.5484 23.1352 30.3406 22.1379C29.0043 21.4875 28.1868 21.0551 28.1947 20.3988C28.1947 19.8161 28.8884 19.1932 30.3838 19.1932Z" fill="#917C51"/>
<path d="M43.9088 16.522H40.9572C40.0405 16.522 39.3586 16.7715 38.9557 17.6853L33.2834 30.5314H37.2952C37.2952 30.5314 37.9496 28.804 38.098 28.4257C38.5372 28.4257 42.435 28.4316 42.9901 28.4316C43.1041 28.921 43.4559 30.5314 43.4559 30.5314H47L43.9088 16.522ZM39.1974 25.5567C39.5119 24.7519 40.7194 21.6392 40.7194 21.6392C40.6988 21.6775 41.0309 20.8286 41.2284 20.3009L41.4858 21.5095C41.4858 21.5095 42.2178 24.8561 42.3711 25.5567H39.1974Z" fill="#917C51"/>
<path d="M121 23.5001C121 15.8437 114.784 9.55176 107.052 9.55176C103.716 9.55176 100.684 10.6889 98.2581 12.6598C100.077 14.4034 101.518 16.6018 102.2 19.1034H101.063C100.305 16.905 99.0919 14.934 97.4242 13.3421C95.7565 14.934 94.5435 16.905 93.7855 19.1034H92.6484C93.4065 16.6018 94.771 14.4034 96.5903 12.6598C94.1645 10.6889 91.2081 9.55176 87.8726 9.55176C80.2161 9.55176 74 15.8437 74 23.5001C74 31.1566 80.2161 37.4485 87.9484 37.4485C91.2839 37.4485 94.3161 36.2356 96.6661 34.3405C94.8468 32.5969 93.4823 30.3985 92.7242 27.8969H93.8613C94.6194 30.0953 95.8323 32.0663 97.5 33.6582C99.1677 32.0663 100.456 30.0953 101.139 27.8969H102.276C101.518 30.3985 100.153 32.5969 98.3339 34.3405C100.76 36.3114 103.792 37.4485 107.127 37.4485C114.784 37.4485 121 31.1566 121 23.5001Z" fill="#917C51"/>
<path d="M110.766 26.7598L111.752 21.605H112.965L113.116 22.1356C113.344 21.9082 113.723 21.605 114.481 21.605L114.102 22.9695C113.723 22.9695 113.116 22.8937 112.661 24.4098L112.206 26.7598H110.766Z" fill="#192436"/>
<path d="M92.1935 20.3164H93.558L93.2548 21.6809H94.0129L93.7854 22.7422H93.1032L92.7242 24.789C92.6484 25.168 92.7242 25.5471 93.4822 25.3954L93.3306 26.5325C93.0274 26.76 92.6484 26.76 92.2693 26.76C91.9661 26.76 90.9048 26.5325 91.1322 25.168L92.1935 20.3164Z" fill="#192436"/>
<path d="M98.258 24.4856C98.4096 23.6518 98.7886 21.605 96.3628 21.605C94.0886 21.605 93.7854 23.8792 93.7854 24.1824C93.7096 24.4856 93.7096 26.7598 96.1354 26.7598C96.7419 26.7598 97.5757 26.684 97.9548 26.5324L98.1822 25.4711C97.9548 25.5469 97.1967 25.6227 96.5902 25.6227C96.0596 25.6227 95.1499 25.6227 95.3015 24.4856H98.258Z" fill="#192436"/>
<path d="M90.829 22.818L91.1322 21.7567C90.4499 21.5293 89.9193 21.5293 89.7677 21.5293C89.5402 21.5293 87.8725 21.5293 87.6451 22.7422C87.4177 23.7277 87.7967 24.1067 88.0999 24.2583C88.6306 24.4857 88.9338 24.7132 89.237 24.8648C89.6161 25.0164 89.5402 25.6228 89.0854 25.6228C88.858 25.6228 87.9483 25.6986 87.2661 25.4712L87.0386 26.5325C87.7209 26.6841 88.1757 26.6841 88.7064 26.6841C89.0854 26.6841 90.7532 26.7599 90.9806 25.2438C91.1322 24.4857 90.7532 24.1825 90.5257 23.9551C90.2225 23.8035 89.8435 23.5003 89.5402 23.4245C89.237 23.2728 89.0096 22.818 89.5402 22.6664C89.7677 22.7422 90.4499 22.7422 90.829 22.818Z" fill="#192436"/>
<path d="M81.7322 26.7601L82.9451 20.5439H80.5951L78.9274 24.3343L78.6242 20.5439H76.4258L75.2129 26.7601H76.5774L77.4871 22.2875L77.8661 26.7601H79.1548L81.1258 22.3633L80.2919 26.7601H81.7322Z" fill="#192436"/>
<path d="M83.3242 21.7569L83.0968 22.894C83.4758 22.894 84.3855 22.7424 84.8403 22.7424C85.2952 22.7424 85.9016 22.6666 85.6742 23.4247C85.2952 23.4247 82.7935 23.0457 82.4145 25.244C82.2629 26.3053 83.1726 26.836 83.8548 26.836C84.5371 26.836 84.7645 26.6844 84.9919 26.5327L85.1436 26.836H86.4323L86.9629 24.0311C87.1145 23.3489 87.3419 21.6811 84.9919 21.6811C84.6887 21.6053 84.2339 21.6053 83.3242 21.7569Z" fill="#192436"/>
<path d="M105.99 21.984C105.611 21.7566 105.384 21.7566 104.929 21.7566C104.474 21.7566 103.413 22.2115 103.261 23.4244C103.034 24.9405 104.019 25.6228 105.46 25.1679L105.839 26.4566C105.384 26.684 104.929 26.7598 104.171 26.7598C102.731 26.7598 101.139 25.4711 101.821 22.8179C102.352 20.9227 104.019 20.1647 105.005 20.2405C106.142 20.3163 106.597 20.6953 106.9 21.0744L105.99 21.984Z" fill="#192436"/>
<path d="M117.892 22.2117C117.589 21.9843 117.437 21.6052 116.831 21.6052C116.073 21.6052 114.86 21.4536 114.177 23.8036C113.723 25.3956 114.632 26.7601 115.618 26.7601C116.073 26.7601 116.527 26.5327 116.831 26.3811L116.982 26.7601H118.498L119.711 20.2407H118.271L117.892 22.2117Z" fill="#192436"/>
<path d="M106.976 21.7569L106.748 22.894C107.127 22.894 108.037 22.7424 108.492 22.7424C108.947 22.7424 109.477 22.6666 109.326 23.4247C108.947 23.4247 106.445 23.0457 106.066 25.244C105.915 26.3053 106.824 26.836 107.506 26.836C108.189 26.836 108.416 26.6844 108.644 26.5327L108.795 26.836H110.084L110.615 24.0311C110.766 23.3489 110.994 21.6811 108.644 21.6811C108.416 21.6053 107.885 21.6053 106.976 21.7569Z" fill="#192436"/>
<path d="M95.3017 23.5H97.0452C97.121 22.9694 96.9694 22.5903 96.4388 22.5903C95.8323 22.5903 95.4533 22.8936 95.3017 23.5Z" fill="#917C51"/>
<path d="M85.4468 24.4857C85.2194 24.4857 84.6887 24.334 84.2339 24.6373C83.7791 24.9405 83.6275 25.4711 84.1581 25.6228C84.6129 25.7744 85.2194 25.4711 85.371 25.0163L85.4468 24.4857Z" fill="#917C51"/>
<path d="M117.437 24.3341C117.589 23.8793 117.513 23.2728 117.361 23.0454C116.907 22.4389 115.921 22.8938 115.618 24.0309C115.39 24.7889 115.845 25.3196 116.3 25.3196C116.831 25.3196 117.134 24.9405 117.437 24.3341Z" fill="#917C51"/>
<path d="M109.174 24.4857C108.947 24.4857 108.416 24.334 107.961 24.6373C107.506 24.9405 107.355 25.4711 107.886 25.6228C108.34 25.7744 109.023 25.4711 109.098 25.0163L109.174 24.4857Z" fill="#917C51"/>
<path d="M98.2581 26.7597L99.2435 21.6807H100.456L100.608 22.2113C100.835 21.9839 101.214 21.6807 101.973 21.6807L101.594 23.0452C101.29 23.0452 100.608 22.9694 100.153 24.4855L99.6984 26.8355H98.2581" fill="#192436"/>
<path d="M87.9484 9.55176C81.8081 9.55176 76.5774 13.5695 74.7581 19.1034H92.8C93.5581 16.6018 94.9226 14.4034 96.7419 12.6598C94.2403 10.7647 91.2081 9.55176 87.9484 9.55176Z" fill="#917C51"/>
<path d="M97.5 13.418C95.8323 15.0099 94.6194 16.9051 93.8613 19.1793H101.139C100.381 16.9809 99.1677 15.0099 97.5 13.418Z" fill="#917C51"/>
<path d="M107.052 9.55176C103.716 9.55176 100.684 10.6889 98.2581 12.6598C100.077 14.4034 101.442 16.6018 102.2 19.1034H120.242C118.498 13.5695 113.268 9.55176 107.052 9.55176Z" fill="#917C51"/>
<path d="M156.424 19.2107C156.27 18.9021 156.027 18.6476 155.725 18.4564C155.41 18.2634 155.038 18.1282 154.612 18.0481C154.18 17.9697 153.68 17.9343 153.101 17.9287L150.428 17.9306C150.15 17.9343 149.878 18.1506 149.813 18.4191L148.014 26.2529C147.949 26.5177 148.123 26.7396 148.401 26.7396H149.681C149.959 26.7396 150.234 26.5243 150.296 26.2529L150.735 24.3509C150.793 24.0861 151.068 23.8651 151.348 23.8651H151.715C153.28 23.8633 154.492 23.5435 155.363 22.9029C156.238 22.2614 156.67 21.4139 156.67 20.3641C156.669 19.9044 156.594 19.5184 156.424 19.2107ZM153.663 21.7701C153.276 22.0535 152.738 22.1953 152.045 22.1953H151.731C151.453 22.1953 151.282 21.9752 151.343 21.7067L151.728 20.0433C151.782 19.7767 152.062 19.5557 152.337 19.5576L152.757 19.5548C153.246 19.5548 153.62 19.6396 153.87 19.8037C154.117 19.9659 154.241 20.2242 154.239 20.5664C154.247 21.0867 154.048 21.4866 153.663 21.7701Z" fill="#917C51"/>
<path d="M192.917 18.5423L192.837 18.5666L192.73 18.5815L192.598 18.561L192.531 18.4957L192.5 18.3932L192.498 18.2393V17.6696H192.926V17.4934H192.498V17.1382H192.287V17.4934H192.143V17.6696H192.287V18.3326L192.386 18.6607L192.677 18.7652L192.799 18.7549L192.928 18.7297V18.5423H192.917Z" fill="#917C51"/>
<path d="M194.902 17.5834L194.596 17.4575L194.371 17.5032L194.141 17.658L194.008 17.5097L193.792 17.4585L193.584 17.5041L193.387 17.6309V17.4929H193.179V18.7377H193.386V17.8081L193.56 17.6999L193.734 17.657L193.876 17.6822L193.945 17.754L193.976 17.8734L193.987 18.0272V18.7386H194.194V17.9424L194.191 17.8762L194.187 17.8155L194.364 17.7027L194.539 17.6589L194.676 17.6841L194.751 17.7559L194.777 17.8762L194.791 18.0281V18.7395H195V17.9312L194.902 17.5834Z" fill="#917C51"/>
<path d="M162.597 20.3303C162.114 20.058 161.352 19.9219 160.309 19.9219C159.794 19.9219 159.28 19.962 158.761 20.0422C158.377 20.1009 158.34 20.1121 158.104 20.1634C157.617 20.2696 157.541 20.7554 157.541 20.7554L157.384 21.3997C157.296 21.8109 157.533 21.795 157.631 21.7605C157.844 21.6971 157.962 21.6318 158.397 21.5349C158.812 21.4407 159.249 21.3698 159.596 21.3745C160.108 21.3745 160.499 21.4286 160.76 21.5386C161.018 21.6505 161.146 21.8426 161.146 22.1204L161.124 22.3013L160.939 22.415C160.213 22.4607 159.688 22.5279 159.051 22.6202C158.429 22.7069 157.882 22.8589 157.428 23.0668C156.941 23.2812 156.579 23.5693 156.326 23.9357C156.082 24.304 155.96 24.7506 155.96 25.2746C155.96 25.7679 156.137 26.1753 156.481 26.4904C156.827 26.8 157.284 26.951 157.83 26.951C158.176 26.9492 158.443 26.9221 158.634 26.8764L159.254 26.6629L159.779 26.372L160.262 26.0532L160.268 26.0625L160.22 26.2676L160.217 26.276V26.2779C160.165 26.5277 160.316 26.7329 160.559 26.7571L160.564 26.7627H160.586H161.568H161.752L161.769 26.7552C162.025 26.7254 162.264 26.5203 162.32 26.276L163.254 22.236L163.302 21.9069L163.324 21.5983C163.328 21.0258 163.081 20.6016 162.597 20.3303ZM160.533 24.8728L160.333 25.1357L159.83 25.3958C159.593 25.4919 159.368 25.5404 159.16 25.5404C158.845 25.5404 158.598 25.4947 158.431 25.4014L158.184 24.9213C158.184 24.6611 158.244 24.4551 158.372 24.2966L158.914 23.9274C159.147 23.849 159.43 23.7828 159.758 23.7371C160.051 23.7008 160.629 23.6346 160.705 23.6327L160.793 23.7884C160.775 23.877 160.611 24.5632 160.533 24.8728Z" fill="#917C51"/>
<path d="M185.849 20.3361C185.363 20.0638 184.601 19.9268 183.562 19.9268C183.046 19.9268 182.531 19.9668 182.014 20.0498C181.63 20.1058 181.592 20.1179 181.355 20.1682C180.869 20.2736 180.793 20.7612 180.793 20.7612L180.637 21.4046C180.549 21.8157 180.78 21.7971 180.889 21.7654C181.102 21.702 181.217 21.6395 181.647 21.5388C182.061 21.4456 182.502 21.3766 182.849 21.3785C183.359 21.3785 183.751 21.4335 184.011 21.5435C184.27 21.6554 184.397 21.8493 184.397 22.1244L184.377 22.3043L184.195 22.4209C183.461 22.4647 182.935 22.5318 182.305 22.6241C181.684 22.7108 181.136 22.8619 180.681 23.0707C180.195 23.2861 179.828 23.5742 179.579 23.9416C179.331 24.3098 179.211 24.7555 179.211 25.2749C179.211 25.7718 179.386 26.1793 179.735 26.4925C180.083 26.8011 180.535 26.9559 181.082 26.9559C181.426 26.9522 181.693 26.9298 181.884 26.8804L182.502 26.6697L183.032 26.3788L183.511 26.0562L183.52 26.0664L183.476 26.2734L183.471 26.2772L183.473 26.2809C183.415 26.5308 183.567 26.7377 183.813 26.7601L183.815 26.7648H183.838C183.999 26.7648 184.556 26.7648 184.822 26.7648H185.003L185.023 26.7583C185.275 26.7275 185.514 26.5224 185.567 26.2753L186.503 22.2409L186.553 21.9099L186.58 21.6004C186.581 21.0298 186.336 20.6074 185.849 20.3361ZM183.789 24.8786L183.581 25.1443L183.082 25.4026C182.846 25.4977 182.62 25.5471 182.416 25.5471C182.09 25.5471 181.85 25.5005 181.688 25.4072L181.438 24.9289C181.438 24.6679 181.498 24.4637 181.62 24.3024C181.744 24.1504 181.934 24.0255 182.169 23.9341C182.398 23.8558 182.681 23.7924 183.012 23.7448C183.302 23.7085 183.879 23.6404 183.953 23.6395L184.044 23.7952C184.031 23.8838 183.866 24.5672 183.789 24.8786Z" fill="#917C51"/>
<path d="M179.672 19.2395C179.511 18.929 179.271 18.6782 178.967 18.4824C178.655 18.2885 178.286 18.1523 177.855 18.074C177.43 17.9985 176.924 17.9575 176.349 17.9565L173.672 17.9584C173.393 17.9631 173.126 18.1794 173.061 18.4451L171.261 26.2826C171.196 26.5484 171.375 26.7684 171.647 26.7684L172.929 26.7665C173.201 26.7684 173.48 26.5502 173.544 26.2817L173.978 24.3787C174.041 24.1139 174.316 23.8911 174.593 23.893H174.96C176.527 23.893 177.742 23.5704 178.616 22.9317C179.481 22.2856 179.918 21.4399 179.918 20.3891C179.913 19.9313 179.834 19.5444 179.672 19.2395ZM176.911 21.8026C176.525 22.0804 175.986 22.2221 175.296 22.2221H174.977C174.702 22.2249 174.524 22.0012 174.586 21.7345L174.974 20.074C175.03 19.8082 175.308 19.5854 175.585 19.5882L176 19.5854C176.492 19.5882 176.862 19.6693 177.113 19.8334C177.364 19.9975 177.483 20.2548 177.485 20.5961C177.488 21.1164 177.295 21.5173 176.911 21.8026Z" fill="#917C51"/>
<path d="M190.649 18.5075C190.707 18.2399 190.54 18.0227 190.265 18.0264H189.118C188.883 18.0264 188.671 18.2008 188.568 18.4152L188.504 18.514L188.446 18.7677L186.844 26.0532L186.791 26.277L186.793 26.2826C186.74 26.5222 186.887 26.7031 187.115 26.7376L187.135 26.7646H188.325C188.558 26.7646 188.777 26.5875 188.877 26.3693L188.939 26.2761L190.652 18.5085L190.649 18.5075Z" fill="#917C51"/>
<path d="M171.296 20.0201C170.993 20.0239 169.762 20.0201 169.762 20.0201C169.486 20.0201 169.131 20.243 168.956 20.5087C168.956 20.5087 167.123 23.6545 166.945 23.9706L166.732 23.9678L166.162 20.5301C166.098 20.2597 165.816 20.0285 165.464 20.0285L164.317 20.0304C164.041 20.0304 163.872 20.2504 163.934 20.5189C163.934 20.5189 164.805 25.4745 164.979 26.6409C165.061 27.2842 164.969 27.3989 164.969 27.3989L163.835 29.3737C163.668 29.6422 163.758 29.8613 164.033 29.8613L165.359 29.8595C165.635 29.8595 165.998 29.6422 166.162 29.3728L171.262 20.7464C171.262 20.7474 171.752 20.0099 171.296 20.0201Z" fill="#917C51"/>
</svg>
